<svg fill="none" height="15" viewBox="0 0 15 15" width="15" xmlns="http://www.w3.org/2000/svg">
    <path clip-rule="evenodd"
          d="m2 2.5c0-.27614.22386-.5.5-.5h10c.2761 0 .5.22386.5.5v10c0 .2761-.2239.5-.5.5h-10c-.27614 0-.5-.2239-.5-.5zm1 .5v4.29289l2.14645-2.14644c.19526-.19527.51184-.19527.7071 0l3.14645 3.14644 1.1464-1.14644c.1953-.19527.5119-.19527.7072 0l1.1464 1.14644v-5.29289zm9 6.70711-1.5-1.5-.79289.79289.64649.64645c.1952.19526.1952.51185 0 .70715-.1953.1952-.51189.1952-.70715 0l-2.64645-2.64649-1.14645 1.14644c-.19526.19527-.51184.19527-.7071 0l-1.14645-1.14644-1 1v3.29289h9zm-7.29289-2.70711.79289.79289.79289-.79289-.79289-.79289z"
          fill="#ffff" fill-rule="evenodd"/>
</svg>